<?xml version="1.0" encoding="UTF-8"?>
<svg version="1.1" xmlns="http://www.w3.org/2000/svg" width="1000" height="1000">
<path d="M0 0 C0.81808748 -0.00551417 1.63617495 -0.01102833 2.47905296 -0.0167096 C5.2201969 -0.03030432 7.960434 -0.01540782 10.70156097 -0.00063419 C12.68664654 -0.00452706 14.67172932 -0.01016739 16.65680552 -0.01740509 C22.11173184 -0.03217962 27.56637009 -0.0219665 33.0212872 -0.00766838 C38.90412148 0.0034261 44.78691484 -0.00849615 50.6697464 -0.01751041 C62.19423313 -0.03145525 73.71861041 -0.02387747 85.24309194 -0.00883483 C94.60786133 0.00308614 103.97260307 0.00664236 113.33737946 0.00424671 C114.00271521 0.0040863 114.66805096 0.00392588 115.3535484 0.0037606 C118.05435218 0.00309702 120.75515595 0.00239461 123.4559597 0.00163526 C148.79241793 -0.00538906 174.12881772 0.01010344 199.46526108 0.03625872 C221.97597151 0.05937384 244.48661772 0.06476199 266.99733734 0.05452633 C272.76162208 0.05192432 278.52590683 0.04933931 284.29019165 0.04692841 C284.99983965 0.04663096 285.70948764 0.04633351 286.44064013 0.04602705 C305.24959081 0.03841246 324.05853623 0.04482407 342.86748457 0.05562443 C344.89131566 0.05677223 346.91514675 0.05791541 348.93897785 0.05905125 C350.28153712 0.0598065 351.62409638 0.06057214 352.96665563 0.06134826 C362.9913997 0.06700713 373.01612646 0.06567515 383.04087067 0.06112003 C394.43927949 0.05619722 405.83762185 0.06216058 417.23601544 0.08201433 C423.05352871 0.09189706 428.87094069 0.0969808 434.6884594 0.08912182 C440.01167348 0.08207764 445.33468294 0.08884017 450.65786999 0.10672545 C452.58576327 0.11077813 454.51367511 0.10975638 456.44156152 0.10320658 C459.05879541 0.09507437 461.67533681 0.10534671 464.29252625 0.12025452 C465.04382637 0.11351687 465.7951265 0.10677921 466.5691933 0.09983739 C472.46106692 0.16489307 477.05601109 1.22449728 481.55981874 5.18202698 C483.16083938 8.59871107 483.06032586 11.89983928 483.02937317 15.59727955 C483.03433268 16.42402371 483.0392922 17.25076786 483.044402 18.10256487 C483.05742295 20.89105764 483.04895292 23.67907665 483.0406723 26.46758175 C483.04555813 28.47966387 483.0517465 30.49174318 483.05913019 32.50381768 C483.07559195 38.04720649 483.07319912 43.59045367 483.06775522 49.13385844 C483.06509269 55.10671009 483.0796022 61.07952332 483.09185028 67.05235958 C483.11293942 78.75937288 483.11746193 90.46634771 483.1156624 102.17337595 C483.11429034 111.68601278 483.11810201 121.19863455 483.12558746 130.71126842 C483.12663779 132.07702801 483.12768541 133.44278759 483.12873033 134.80854718 C483.12924967 135.48648548 483.12976901 136.16442378 483.1303041 136.86290566 C483.13082424 137.54207196 483.13134438 138.22123825 483.13188028 138.92098534 C483.13266627 139.94141637 483.13266627 139.94141637 483.13346814 140.98246217 C483.14805579 160.12168172 483.15633201 179.26089574 483.15171814 198.40012074 C483.15154618 199.12194117 483.15137423 199.8437616 483.15119706 200.58745538 C483.15030815 204.24608036 483.14936334 207.90470532 483.14839906 211.56333028 C483.14820802 212.28996829 483.14801699 213.01660631 483.14782017 213.76526365 C483.14743308 215.23470306 483.14704275 216.70414246 483.14664919 218.17358186 C483.14067875 241.03961836 483.15611756 263.90555367 483.18825531 286.77156734 C483.22431689 312.45127048 483.24366702 338.13090944 483.2387166 363.8106395 C483.23824661 366.54784051 483.23783636 369.28504152 483.2374649 372.02224255 C483.23731133 373.03322289 483.23731133 373.03322289 483.23715464 374.06462708 C483.23595887 384.24739455 483.24793927 394.43009279 483.26660919 404.61284161 C483.28782787 416.19143081 483.29125355 427.7698774 483.2723096 439.34847389 C483.26312742 445.25907677 483.26208471 451.16938976 483.28266525 457.07997036 C483.30128548 462.48724371 483.2969725 467.89398793 483.27411944 473.30124058 C483.26991098 475.26083868 483.27420845 477.22047665 483.28771538 479.18003272 C483.30479375 481.83806079 483.29124454 484.49422421 483.2698822 487.15218067 C483.28215973 487.91819578 483.29443725 488.68421088 483.30708683 489.47343856 C483.24463231 493.17731144 482.7356865 495.9603605 480.62217236 498.97532982 C476.88211689 502.14899618 474.10577131 502.34027217 469.40809631 502.25282478 C468.16326736 502.26545636 468.16326736 502.26545636 466.89329034 502.27834311 C464.09962686 502.2993146 461.30794028 502.27736351 458.51430511 502.25574398 C456.4965165 502.26193858 454.4787345 502.27075327 452.46096754 502.28196937 C446.90633407 502.30514207 441.3523292 502.29072803 435.79770827 502.27026021 C429.81124187 502.25466642 423.82487231 502.27353699 417.83841705 502.2880621 C406.78555997 502.30960198 395.73288021 502.30384525 384.68003489 502.28416387 C374.46985999 502.26609205 364.25975809 502.25956861 354.04956818 502.26452732 C353.0342868 502.2649971 353.0342868 502.2649971 351.99849468 502.26547637 C349.25103019 502.2667626 346.50356573 502.26810181 343.75610131 502.26952124 C317.97453756 502.28266793 292.19310181 502.26161337 266.41156649 502.22470398 C243.49837614 502.19209686 220.58534603 502.18755824 197.67214203 502.20735836 C191.80506398 502.21240108 185.93798593 502.21740562 180.07090759 502.22210121 C178.98750056 502.22296848 178.98750056 502.22296848 177.88220651 502.22385328 C158.74495618 502.23871262 139.60771679 502.23043589 120.470469 502.21503574 C118.41165653 502.21340637 116.35284405 502.21178814 114.29403156 502.21018572 C112.9282283 502.2091222 111.56242504 502.20804251 110.1966218 502.20694652 C99.99202825 502.19900786 89.78748407 502.20300914 79.58289337 502.21261311 C67.9815986 502.22342926 56.38044297 502.21569548 44.77917612 502.18515732 C38.85655237 502.16999813 32.93420764 502.16290476 27.0115757 502.17734814 C21.59450286 502.19032081 16.17798392 502.18037499 10.76097542 502.1517894 C8.79672374 502.14548668 6.83242342 502.14769222 4.86819452 502.15905984 C2.20626832 502.17321012 -0.45375789 502.15684035 -3.11557007 502.13257027 C-3.88553068 502.14399025 -4.6554913 502.15541023 -5.44878405 502.16717628 C-9.30432025 502.09789766 -11.15756996 501.65174116 -14.2436223 499.27357131 C-18.20311889 494.07021202 -18.64556368 489.8223732 -18.60821247 483.4085474 C-18.61141895 482.59445599 -18.61462543 481.78036457 -18.61792907 480.94160372 C-18.62625812 478.20224683 -18.62029463 475.46310693 -18.61443329 472.7237463 C-18.61745265 470.74451423 -18.62134104 468.76528332 -18.62602586 466.78605449 C-18.63634241 461.33809011 -18.63411474 455.89019126 -18.62984526 450.4422214 C-18.62738466 444.57026595 -18.63638391 438.69832655 -18.64388275 432.82637691 C-18.65665038 421.31902762 -18.65842087 409.81170164 -18.65608249 398.30434646 C-18.65425065 388.95335948 -18.65600714 379.60237768 -18.66030693 370.25139141 C-18.66090933 368.90848749 -18.66151053 367.56558356 -18.66211053 366.22267964 C-18.66301778 364.19910927 -18.66392644 362.17553891 -18.66484288 360.15196855 C-18.67327406 341.33461671 -18.67760698 322.51726745 -18.67343616 303.69991398 C-18.67327979 302.99034766 -18.67312341 302.28078135 -18.6729623 301.54971302 C-18.6721565 297.95325923 -18.67131073 294.35680545 -18.670449 290.76035167 C-18.67027791 290.04607071 -18.67010682 289.33178975 -18.66993055 288.59586392 C-18.66958389 287.15141383 -18.66923536 285.70696374 -18.66888496 284.26251366 C-18.66352748 261.78569833 -18.67145828 239.30892223 -18.68991852 216.83211422 C-18.71062944 191.58529021 -18.72136296 166.3384905 -18.71734303 141.09165752 C-18.71694768 138.40023256 -18.71658613 135.70880759 -18.71624565 133.01738262 C-18.71615492 132.35467485 -18.71606419 131.69196709 -18.71597071 131.00917726 C-18.71480419 121.00007362 -18.72149326 110.9909949 -18.73205757 100.98189831 C-18.74394906 89.59991825 -18.74540139 78.21799594 -18.7332674 66.83601512 C-18.727363 61.02661122 -18.72632234 55.21731304 -18.73826981 49.40791607 C-18.74907545 44.0920331 -18.74608886 38.7763448 -18.73200812 33.46047114 C-18.72934647 31.53520607 -18.73177344 29.609926 -18.73974399 27.68467559 C-18.74981544 25.07097325 -18.74145773 22.45795216 -18.72846699 19.84427738 C-18.73577633 19.0940099 -18.74308568 18.34374242 -18.75061652 17.57073957 C-18.69886442 12.5592025 -17.91689707 8.82390804 -15.35373688 4.50057125 C-10.34159721 0.6905268 -6.27073325 -0.08054809 0 0 Z " fill="#8B51FE" transform="translate(517.3537368774414,498.4994287490845)"/>
<path d="M0 0 C0.82473606 -0.00235223 1.64947213 -0.00470446 2.4992002 -0.00712797 C5.29275462 -0.01384229 8.0862628 -0.01335902 10.87982464 -0.01294994 C12.89089059 -0.01624705 14.90195588 -0.01997229 16.91302031 -0.02409142 C22.46281756 -0.03413686 28.01260399 -0.03783229 33.56240904 -0.04048073 C39.53867183 -0.04437622 45.51492599 -0.05395501 51.49118328 -0.0626936 C65.25183593 -0.08154317 79.01248922 -0.09171683 92.7731511 -0.10015428 C99.57000708 -0.10435835 106.36686218 -0.10958063 113.16371742 -0.11483881 C136.42037389 -0.13272965 159.67703061 -0.14772694 182.93369293 -0.155159 C184.39416388 -0.15563376 185.85463483 -0.15610965 187.31510578 -0.15658666 C188.03938271 -0.15682303 188.76365963 -0.15705941 189.50988435 -0.15730295 C193.17955907 -0.15850417 196.84923379 -0.15971962 200.5189085 -0.16094494 C201.24717217 -0.16118509 201.97543583 -0.16142524 202.7257681 -0.16167267 C226.34636013 -0.16956842 249.966902 -0.1930056 273.58747212 -0.22550088 C298.54811993 -0.25977718 323.50873838 -0.27950806 348.46941012 -0.28280324 C351.20802861 -0.28322079 353.94664707 -0.28370036 356.68526554 -0.28422642 C357.35961286 -0.28434961 358.03396018 -0.2844728 358.72874226 -0.28459973 C369.59370114 -0.28693443 380.45860188 -0.30260932 391.32354001 -0.32306826 C402.2386985 -0.34329614 413.15379646 -0.34848381 424.06897167 -0.33929763 C429.98548015 -0.33473615 435.90179931 -0.33674605 441.81828213 -0.35605907 C447.22982604 -0.37357191 452.64104088 -0.3727903 458.05258771 -0.35716178 C460.0149228 -0.35476755 461.97727999 -0.35920224 463.93958113 -0.37099043 C466.59868109 -0.38598069 469.2565955 -0.3765268 471.91566467 -0.36076355 C473.06948539 -0.37609686 473.06948539 -0.37609686 474.24661562 -0.39173993 C477.74741684 -0.34616846 479.9793942 0.03839871 483.03602713 1.79015762 C487.43858466 6.67977952 487.43789849 12.04717148 487.40106964 18.34929276 C487.40427612 19.16453801 487.4074826 19.97978327 487.41078624 20.81973293 C487.41910085 23.55699357 487.41315682 26.29403624 487.40729046 29.03130054 C487.41031047 31.01139567 487.41419919 32.99148963 487.41888303 34.97158152 C487.42919107 40.41728659 487.42697407 45.86292603 487.42270243 51.30863655 C487.42024031 57.17989275 487.42924294 63.05113293 487.43673992 68.92238331 C487.44950303 80.42625339 487.45127862 91.93010014 487.44893966 103.43397611 C487.4471074 112.78207875 487.4488652 122.13017622 487.4531641 131.47827816 C487.4537665 132.82104523 487.4543677 134.16381229 487.4549677 135.50657936 C487.45587495 137.52996583 487.45678362 139.5533523 487.45770005 141.57673877 C487.46613019 160.39016274 487.47046484 179.20358414 487.46629333 198.01700974 C487.46613696 198.72631003 487.46598058 199.43561033 487.46581947 200.16640458 C487.46501368 203.76146755 487.46416791 207.3565305 487.46330617 210.95159345 C487.46304953 212.02259138 487.46304953 212.02259138 487.46278772 213.11522563 C487.46244106 214.55910405 487.46209253 216.00298247 487.46174213 217.44686089 C487.45638409 239.91712603 487.46431745 262.38735193 487.48277569 284.85760975 C487.50348652 310.09967999 487.51422021 335.34172593 487.5102002 360.58380514 C487.50980485 363.27465284 487.50944331 365.96550053 487.50910282 368.65634823 C487.50901209 369.3189095 487.50892136 369.98147076 487.50882788 370.66410964 C487.50766141 380.67057019 487.51435005 390.67700579 487.52491474 400.68345928 C487.53680602 412.06175532 487.53825874 423.4399936 487.52612457 434.8182904 C487.5202202 440.62567601 487.51917946 446.43295584 487.53112698 452.24033451 C487.5419326 457.55432718 487.53894606 462.86812511 487.52486529 468.18210847 C487.52220366 470.10667071 487.52463058 472.03124795 487.53260116 473.95579552 C487.54267264 476.56853612 487.53431489 479.18059523 487.52132416 481.79330826 C487.5286335 482.54328989 487.53594285 483.29327152 487.54347369 484.06597987 C487.4903393 489.20949731 486.46596777 492.63987009 484.14659405 497.13422108 C479.51421753 501.6171661 474.31385135 501.27998123 468.17761803 501.26564884 C467.36468046 501.26770148 466.55174289 501.26975411 465.71417084 501.27186894 C462.97277338 501.27755203 460.23142595 501.27608008 457.49002361 501.27466297 C455.51165548 501.27724585 453.53328786 501.28025879 451.55492097 501.28366637 C446.10471463 501.29174858 440.65452145 501.29352662 435.20430982 501.29426384 C429.33165881 501.29611225 423.45901466 501.30365847 417.58636761 501.31039906 C404.06938397 501.32470002 390.55240214 501.33050981 377.03541234 501.335091 C370.35701504 501.33742656 363.67861849 501.34102914 357.00022186 501.34478638 C334.14283831 501.35762144 311.28545524 501.36834114 288.42806816 501.37178898 C286.99316717 501.37201061 285.55826618 501.3722324 284.12336518 501.37245433 C282.68498698 501.37267497 281.24660878 501.37289545 279.80823058 501.37311578 C276.92256463 501.37355833 274.03689867 501.37400545 271.15123272 501.37445545 C270.43575509 501.37456484 269.72027745 501.37467423 268.98311868 501.37478694 C245.77789641 501.37841848 222.57270536 501.3943424 199.36749505 501.41764582 C174.83777853 501.44223435 150.30807986 501.45596134 125.77835065 501.4571569 C123.08634841 501.45732835 120.39434618 501.45754378 117.70234394 501.45779133 C116.70806254 501.45787498 116.70806254 501.45787498 115.69369464 501.45796032 C105.68194512 501.45904024 95.67022505 501.46840793 85.65848637 501.48197651 C74.27282624 501.4973525 62.88721964 501.50251273 51.50155111 501.49423841 C45.6901261 501.49032317 39.87880896 501.49130411 34.06739712 501.50529575 C28.74962849 501.5179821 23.43204938 501.51688362 18.11428121 501.50470504 C16.18831141 501.5027389 14.26232841 501.50586854 12.33637717 501.5145494 C9.72171795 501.52559036 7.10773364 501.51819021 4.49309349 501.50615788 C3.3672635 501.51755067 3.3672635 501.51755067 2.21868947 501.52917361 C-2.91464535 501.47805472 -6.41256788 500.56469197 -10.85340595 498.13422108 C-11.34840595 496.64922108 -11.34840595 496.64922108 -11.85340595 495.13422108 C-12.51340595 495.13422108 -13.17340595 495.13422108 -13.85340595 495.13422108 C-13.92186251 448.58505551 -13.98554717 402.03588577 -14.02277851 355.48668385 C-14.02333074 354.79801247 -14.02388297 354.1093411 -14.02445193 353.3998009 C-14.03642287 338.43400707 -14.0475037 323.46821271 -14.05766727 308.50241755 C-14.06265672 301.16345806 -14.06784292 293.82449872 -14.07313251 286.48553944 C-14.07365555 285.75521515 -14.07417859 285.02489087 -14.07471747 284.27243555 C-14.09177039 260.58997923 -14.12182122 236.90756103 -14.15859484 213.22512781 C-14.19630819 188.89336873 -14.22094377 164.56163075 -14.22906591 140.22984294 C-14.23021857 136.79509812 -14.23152112 133.36035337 -14.23291492 129.92560863 C-14.23318462 129.24958516 -14.23345431 128.57356169 -14.23373217 127.87705267 C-14.2384636 116.98408459 -14.25702805 106.09118166 -14.28073409 95.19824018 C-14.30425831 84.25371699 -14.31295969 73.30924898 -14.30741146 62.36470006 C-14.30484099 56.43199988 -14.30887344 50.49949131 -14.33022785 44.56682491 C-14.34961816 39.14040421 -14.35072497 33.71430493 -14.33700153 28.28786977 C-14.33530411 26.32008887 -14.34044173 24.35228833 -14.35293868 22.38454638 C-14.36889461 19.71808454 -14.36039986 17.05279668 -14.34559727 14.38635445 C-14.35610532 13.61496459 -14.36661338 12.84357474 -14.37743986 12.04880944 C-14.31533205 7.1282476 -13.37894814 4.57980555 -9.85340595 1.13422108 C-6.73492437 -0.42501972 -3.42313996 -0.00654265 0 0 Z " fill="#8B51FF" transform="translate(13.853405952453613,-0.13422107696533203)"/>
<path d="M0 0 C0.94842616 -0.00623996 1.89685232 -0.01247993 2.87401867 -0.01890898 C6.04232557 -0.03482478 9.20986163 -0.02223995 12.37817383 -0.00964355 C14.65353849 -0.01506528 16.92889964 -0.02218822 19.20425415 -0.03088379 C25.37775409 -0.04911384 31.55098653 -0.04205072 37.72449112 -0.02936745 C44.1861264 -0.01923825 50.64773882 -0.02863291 57.109375 -0.03491211 C68.65539827 -0.04265477 80.20128482 -0.03022652 91.74728668 -0.00987476 C102.20927025 0.00799553 112.67107627 0.00489119 123.13305664 -0.0135498 C135.29145418 -0.03497108 147.44971242 -0.04291589 159.60813236 -0.03110075 C166.04083074 -0.0248656 172.47340689 -0.02403094 178.90609741 -0.0372467 C184.9538121 -0.04880372 191.00119159 -0.04078168 197.04887009 -0.01766968 C199.26803404 -0.01238187 201.48722622 -0.01389756 203.70637894 -0.02272034 C206.73643649 -0.03365614 209.76542091 -0.01993515 212.79541016 0 C213.67294543 -0.00892289 214.55048071 -0.01784577 215.45460796 -0.02703905 C221.23805882 0.04673138 224.78168836 0.91100598 229.39770508 4.50793457 C232.68842105 9.93247893 232.82596756 14.88541175 232.77865601 21.03430176 C232.78333598 21.97456081 232.78801595 22.91481987 232.79283774 23.88357162 C232.80477309 27.02412912 232.79533606 30.16424908 232.78588867 33.30480957 C232.78995501 35.56046808 232.79529724 37.8161246 232.80181885 40.07177734 C232.81549073 46.19152209 232.81019423 52.31111504 232.80068159 58.43086243 C232.7930844 64.8364401 232.80013078 71.24200482 232.80484009 77.64758301 C232.81064698 89.09338777 232.80132611 100.53910849 232.78606208 111.98489904 C232.77265941 122.35589299 232.77498767 132.72678619 232.78881836 143.09777832 C232.80488459 155.15068195 232.81084274 167.20350952 232.80198157 179.25642776 C232.79730536 185.63321603 232.79667886 192.00993494 232.80659103 198.38671875 C232.81525908 204.38185023 232.8092415 210.37679152 232.79190826 216.37190247 C232.78794259 218.57171818 232.78907882 220.77154991 232.79569626 222.97135925 C232.80389843 225.97497783 232.79360579 228.97798755 232.77865601 231.98156738 C232.78534817 232.85132076 232.79204034 233.72107414 232.79893529 234.61718369 C232.7470731 239.99218607 231.92025366 243.73570281 229.39770508 248.50793457 C225.82883041 251.96168425 222.17621523 252.63065566 217.33307171 252.63936234 C216.52824342 252.64320348 215.72341514 252.64704463 214.89419812 252.65100217 C214.01570622 252.65013569 213.13721431 252.6492692 212.23210144 252.64837646 C211.29440566 252.65134759 210.35670988 252.65431871 209.39059907 252.65737987 C206.24085914 252.66606839 203.09115722 252.66757524 199.94140625 252.66906738 C197.686192 252.67369541 195.43097854 252.67872005 193.17576599 252.68411255 C187.04349731 252.69723922 180.91123957 252.70368193 174.77895904 252.70812321 C170.94893925 252.71105325 167.11892247 252.71515791 163.28890419 252.71962738 C152.68161615 252.73173559 142.07433072 252.74211808 131.46703625 252.74550247 C130.78838708 252.74572204 130.10973791 252.7459416 129.41052361 252.74616782 C128.73026619 252.7463861 128.05000877 252.74660438 127.34913749 252.74682927 C125.97071405 252.74727273 124.59229062 252.7477193 123.21386719 252.74816895 C122.53012397 252.74839038 121.84638075 252.7486118 121.14191804 252.74883994 C110.06324456 252.75278784 98.98463685 252.77024242 87.90598878 252.79352847 C76.52772849 252.81725096 65.14951231 252.82944681 53.77122289 252.83087039 C47.38431557 252.83191926 40.99750105 252.83784466 34.61061668 252.85569 C28.60323413 252.87214846 22.59601437 252.87433692 16.58861732 252.86555099 C14.38395884 252.86477946 12.17929168 252.86913867 9.97465515 252.87900925 C6.96432882 252.8916965 3.95458186 252.88586922 0.94425964 252.87542725 C-0.36343996 252.88751185 -0.36343996 252.88751185 -1.69755775 252.89984059 C-7.08091 252.85618664 -10.82353795 252.03631821 -15.60229492 249.50793457 C-19.0560446 245.9390599 -19.72501601 242.28644472 -19.73372269 237.4433012 C-19.73756383 236.63847292 -19.74140498 235.83364463 -19.74536252 235.00442761 C-19.74449604 234.12593571 -19.74362956 233.2474438 -19.74273682 232.34233093 C-19.74570794 231.40463515 -19.74867906 230.46693937 -19.75174022 229.50082856 C-19.76042875 226.35108864 -19.7619356 223.20138671 -19.76342773 220.05163574 C-19.76805576 217.7964215 -19.7730804 215.54120803 -19.7784729 213.28599548 C-19.79159957 207.1537268 -19.79804228 201.02146907 -19.80248356 194.88918853 C-19.8054136 191.05916874 -19.80951826 187.22915196 -19.81398773 183.39913368 C-19.82609595 172.79184564 -19.83647843 162.18456022 -19.83986282 151.57726574 C-19.84008239 150.89861657 -19.84030196 150.2199674 -19.84052818 149.5207531 C-19.84074645 148.84049568 -19.84096473 148.16023826 -19.84118962 147.45936698 C-19.84163309 146.08094354 -19.84207965 144.70252011 -19.8425293 143.32409668 C-19.84275073 142.64035346 -19.84297216 141.95661024 -19.8432003 141.25214753 C-19.84714819 130.17347405 -19.86460278 119.09486634 -19.88788882 108.01621827 C-19.91161131 96.63795798 -19.92380716 85.2597418 -19.92523074 73.88145238 C-19.92627961 67.49454506 -19.93220501 61.10773054 -19.95005035 54.72084618 C-19.96650881 48.71346362 -19.96869728 42.70624386 -19.95991135 36.69884682 C-19.95913981 34.49418833 -19.96349902 32.28952117 -19.9733696 30.08488464 C-19.98605685 27.07455831 -19.98022957 24.06481135 -19.9697876 21.05448914 C-19.977844 20.1826894 -19.98590041 19.31088966 -19.99420094 18.41267174 C-19.95158448 13.157262 -19.39947966 9.1150536 -16.60229492 4.50793457 C-11.19110654 0.29138611 -6.70712702 -0.06819889 0 0 Z " fill="#8B51FE" transform="translate(143.602294921875,623.4920654296875)"/>
<path d="M0 0 C0.80482828 -0.00384115 1.60965657 -0.00768229 2.43887359 -0.01163983 C3.75661145 -0.01034011 3.75661145 -0.01034011 5.10097027 -0.00901413 C6.03866605 -0.01198525 6.97636183 -0.01495637 7.94247264 -0.01801753 C11.09221256 -0.02670606 14.24191449 -0.02821291 17.39166546 -0.02970505 C19.64687971 -0.03433308 21.90209317 -0.03935772 24.15730572 -0.04475021 C30.2895744 -0.05787688 36.42183213 -0.06431959 42.55411267 -0.06876087 C46.38413246 -0.07169091 50.21414924 -0.07579557 54.04416752 -0.08026505 C64.65145556 -0.09237326 75.25874099 -0.10275575 85.86603546 -0.10614014 C86.54468463 -0.1063597 87.2233338 -0.10657927 87.9225481 -0.10680549 C88.60280552 -0.10702377 89.28306294 -0.10724204 89.98393422 -0.10746694 C91.36235766 -0.1079104 92.74078109 -0.10835696 94.11920452 -0.10880661 C95.14481935 -0.10913875 95.14481935 -0.10913875 96.19115367 -0.10947761 C107.26982715 -0.1134255 118.34843486 -0.13088009 129.42708293 -0.15416613 C140.80534322 -0.17788863 152.1835594 -0.19008447 163.56184882 -0.19150805 C169.94875614 -0.19255692 176.33557066 -0.19848232 182.72245502 -0.21632767 C188.72983758 -0.23278613 194.73705734 -0.23497459 200.74445438 -0.22618866 C202.94911287 -0.22541712 205.15378003 -0.22977633 207.35841656 -0.23964691 C210.36874289 -0.25233416 213.37848985 -0.24650688 216.38881207 -0.23606491 C217.69651167 -0.24814952 217.69651167 -0.24814952 219.03062946 -0.26047826 C224.41398171 -0.2168243 228.15660966 0.60304412 232.93536663 3.13142776 C236.38911631 6.70030243 237.05808772 10.35291761 237.0667944 15.19606113 C237.07063554 16.00088942 237.07447669 16.8057177 237.07843423 17.63493472 C237.07756775 18.51342663 237.07670126 19.39191853 237.07580853 20.2970314 C237.07877965 21.23472718 237.08175077 22.17242297 237.08481193 23.13853377 C237.09350045 26.2882737 237.0950073 29.43797562 237.09649944 32.58772659 C237.10112747 34.84294084 237.10615211 37.0981543 237.11154461 39.35336685 C237.12467128 45.48563553 237.13111399 51.61789327 237.13555527 57.75017381 C237.13848531 61.58019359 237.14258997 65.41021038 237.14705944 69.24022865 C237.15916765 79.84751669 237.16955014 90.45480212 237.17293453 101.0620966 C237.17326388 102.08007035 237.17326388 102.08007035 237.17359988 103.11860923 C237.17381816 103.79886665 237.17403644 104.47912407 237.17426133 105.17999536 C237.1747048 106.55841879 237.17515136 107.93684222 237.17560101 109.31526566 C237.17593315 110.34088048 237.17593315 110.34088048 237.176272 111.3872148 C237.1802199 122.46588829 237.19767448 133.54449599 237.22096053 144.62314407 C237.24468302 156.00140436 237.25687887 167.37962053 237.25830245 178.75790995 C237.25935132 185.14481727 237.26527672 191.53163179 237.28312206 197.91851616 C237.29958052 203.92589871 237.30176898 209.93311848 237.29298306 215.94051552 C237.29221152 218.14517401 237.29657073 220.34984117 237.30644131 222.55447769 C237.31912856 225.56480402 237.31330128 228.57455098 237.30285931 231.5848732 C237.31494391 232.89257281 237.31494391 232.89257281 237.32727265 234.22669059 C237.2836187 239.61004285 236.46375027 243.35267079 233.93536663 248.13142776 C230.36649196 251.58517744 226.71387678 252.25414885 221.87073326 252.26285553 C221.06590498 252.26669667 220.26107669 252.27053782 219.43185967 252.27449536 C218.55336777 252.27362888 217.67487586 252.2727624 216.76976299 252.27186966 C215.83206721 252.27484078 214.89437143 252.2778119 213.92826062 252.28087306 C210.7785207 252.28956159 207.62881877 252.29106844 204.4790678 252.29256058 C202.22385356 252.29718861 199.96864009 252.30221325 197.71342754 252.30760574 C191.58115886 252.32073241 185.44890113 252.32717512 179.31662059 252.3316164 C175.4866008 252.33454644 171.65658402 252.3386511 167.82656574 252.34312057 C157.2192777 252.35522879 146.61199228 252.36561128 136.0046978 252.36899567 C135.32604863 252.36921523 134.64739946 252.3694348 133.94818516 252.36966102 C133.26792774 252.3698793 132.58767032 252.37009757 131.88679904 252.37032247 C130.5083756 252.37076593 129.12995217 252.37121249 127.75152874 252.37166214 C127.06778552 252.37188357 126.3840423 252.372105 125.67957959 252.37233314 C114.60090611 252.37628103 103.5222984 252.39373562 92.44365033 252.41702166 C81.06539004 252.44074416 69.68717386 252.45294 58.30888444 252.45436358 C51.92197712 252.45541245 45.5351626 252.46133785 39.14827824 252.4791832 C33.14089568 252.49564166 27.13367592 252.49783012 21.12627888 252.48904419 C18.92162039 252.48827265 16.71695323 252.49263186 14.5123167 252.50250244 C11.50199037 252.51518969 8.49224341 252.50936241 5.4819212 252.49892044 C4.17422159 252.51100505 4.17422159 252.51100505 2.84010381 252.52333379 C-2.54324845 252.47967983 -6.2858764 251.65981141 -11.06463337 249.13142776 C-14.51838305 245.5625531 -15.18735446 241.90993792 -15.19606113 237.0667944 C-15.19990228 236.26196611 -15.20374342 235.45713783 -15.20770097 234.62792081 C-15.20683449 233.7494289 -15.205968 232.870937 -15.20507526 231.96582413 C-15.20804639 231.02812835 -15.21101751 230.09043256 -15.21407866 229.12432176 C-15.22276719 225.97458183 -15.22427404 222.82487991 -15.22576618 219.67512894 C-15.23039421 217.41991469 -15.23541885 215.16470123 -15.24081135 212.90948868 C-15.25393802 206.77722 -15.26038073 200.64496226 -15.26482201 194.51268172 C-15.26775205 190.68266194 -15.27185671 186.85264515 -15.27632618 183.02262688 C-15.28843439 172.41533884 -15.29881688 161.80805341 -15.30220127 151.20075893 C-15.30242084 150.52210976 -15.3026404 149.84346059 -15.30286662 149.1442463 C-15.3030849 148.46398888 -15.30330318 147.78373145 -15.30352807 147.08286017 C-15.30397153 145.70443674 -15.3044181 144.32601331 -15.30486774 142.94758987 C-15.30508917 142.26384666 -15.3053106 141.58010344 -15.30553874 140.87564073 C-15.30948663 129.79696724 -15.32694122 118.71835954 -15.35022727 107.63971146 C-15.37394976 96.26145117 -15.3861456 84.883235 -15.38756919 73.50494558 C-15.38861806 67.11803826 -15.39454345 60.73122374 -15.4123888 54.34433937 C-15.42884726 48.33695682 -15.43103572 42.32973705 -15.42224979 36.32234001 C-15.42147825 34.11768152 -15.42583747 31.91301436 -15.43570805 29.70837784 C-15.4483953 26.69805151 -15.44256802 23.68830455 -15.43212605 20.67798233 C-15.44018245 19.80618259 -15.44823885 18.93438285 -15.45653939 18.03616494 C-15.41288544 12.65281268 -14.59301701 8.91018474 -12.06463337 4.13142776 C-8.4957587 0.67767809 -4.84314352 0.00870668 0 0 Z " fill="#8B51FE" transform="translate(639.0646333694458,123.86857223510742)"/>
<path d="M0 0 C0.66 0 1.32 0 2 0 C2.05134948 45.66291014 2.09911207 91.3258232 2.12702942 136.98875427 C2.12744359 137.66446189 2.12785776 138.34016951 2.12828448 139.03635312 C2.13726298 153.72091254 2.14557356 168.40547225 2.15319599 183.09003243 C2.15693803 190.29122286 2.16082769 197.49241321 2.16479492 204.69360352 C2.1651872 205.41021269 2.16557948 206.12682187 2.16598364 206.86514648 C2.17877018 230.09709826 2.20130597 253.32902817 2.22889166 276.56096669 C2.2571855 300.43261742 2.27565542 324.30425604 2.28174497 348.17592326 C2.28260945 351.54678087 2.28358636 354.91763845 2.28463173 358.28849602 C2.284834 358.95193629 2.28503627 359.61537656 2.28524467 360.29892108 C2.28901027 371.64276784 2.30498137 382.98656607 2.3237494 394.33039635 C2.33957762 404.40926796 2.34440697 414.488107 2.34050413 424.56699014 C2.33857805 430.38649118 2.34158085 436.20588231 2.35761642 442.02536392 C2.37218355 447.35068911 2.37297304 452.67583016 2.36269668 458.00116371 C2.36142603 459.92994676 2.36525848 461.85874116 2.37464955 463.78750176 C2.38665989 466.40600308 2.38021744 469.02383655 2.36914349 471.64232731 C2.37702453 472.39402402 2.38490557 473.14572074 2.39302543 473.92019615 C2.34369169 479.07004639 1.323092 482.50095029 -1 487 C-5.63900965 491.48936418 -10.84439581 491.14429743 -16.98852921 491.12304783 C-18.21108132 491.1247786 -18.21108132 491.1247786 -19.45833147 491.12654433 C-22.20679934 491.1292046 -24.95520939 491.12469363 -27.70367432 491.12025452 C-29.68703085 491.12069034 -31.67038733 491.12156545 -33.65374351 491.12284368 C-39.11746885 491.12508649 -44.5811747 491.12107026 -50.04489756 491.11606562 C-55.93172614 491.11175825 -61.81855358 491.11320775 -67.7053833 491.1139679 C-77.90924593 491.11449295 -88.11310217 491.11134809 -98.3169632 491.10573006 C-109.02026659 491.09984087 -119.72356726 491.09596465 -130.42687225 491.09487724 C-131.4246295 491.09477413 -131.4246295 491.09477413 -132.44254345 491.09466894 C-135.82052917 491.09433061 -139.1985149 491.09402923 -142.57650062 491.09374207 C-166.51096309 491.09164092 -190.44542222 491.08490151 -214.37988281 491.07543945 C-237.63378888 491.06625705 -260.88769404 491.05917244 -284.14160156 491.05493164 C-284.8582223 491.05480011 -285.57484303 491.05466859 -286.31317954 491.05453308 C-293.50969302 491.05321457 -300.7062065 491.05193876 -307.90271999 491.05069422 C-322.56321881 491.04815791 -337.22371757 491.04533666 -351.88421631 491.04234314 C-352.55830183 491.04220585 -353.23238736 491.04206856 -353.92689971 491.04192711 C-398.95126788 491.0327244 -443.97563412 491.01685818 -489 491 C-489.33 490.34 -489.66 489.68 -490 489 C-488.98238095 488.99940291 -487.96476189 488.99880582 -486.9163059 488.99819064 C-442.07648663 488.97161882 -397.2366732 488.94011082 -352.3968811 488.88336182 C-351.71821595 488.88250431 -351.0395508 488.8816468 -350.34032003 488.8807633 C-335.59172469 488.86209844 -320.84313065 488.84254601 -306.0945377 488.82207905 C-298.86201624 488.81204771 -291.62949452 488.80221255 -284.39697266 488.79248047 C-283.67724303 488.79150866 -282.95751341 488.79053686 -282.2159738 488.7895356 C-258.8800423 488.7581185 -235.54412238 488.73965945 -212.20817339 488.72790753 C-188.23098525 488.71576434 -164.25384547 488.69057353 -140.27668955 488.64892386 C-136.89145683 488.64304962 -133.50622388 488.63732481 -130.12099075 488.63169098 C-129.45471676 488.63057752 -128.78844277 488.62946406 -128.10197865 488.62831686 C-118.03424987 488.61185266 -107.96655616 488.6068881 -97.89881516 488.60811615 C-86.44821613 488.60942203 -74.9977315 488.59746199 -63.5471689 488.56783572 C-57.70145165 488.55314641 -51.85591407 488.5450239 -46.01018143 488.55419731 C-40.66200669 488.56244821 -35.31419387 488.55242878 -29.96607299 488.52766338 C-28.02789823 488.52195178 -26.08968947 488.52303811 -24.15152471 488.53148755 C-21.52253213 488.54196965 -18.89476938 488.52800072 -16.2658596 488.50780869 C-15.50832718 488.51671239 -14.75079476 488.5256161 -13.97030681 488.53478962 C-8.86926465 488.45931154 -5.88727574 487.29160398 -2 484 C-0.77544139 480.32632418 -0.85621322 476.94410079 -0.8613348 473.11890125 C-0.85707147 471.89554734 -0.85707147 471.89554734 -0.85272202 470.64747921 C-0.84434339 467.89118156 -0.84310433 465.13492576 -0.84178162 462.37861633 C-0.83721842 460.39199717 -0.83221876 458.40537897 -0.82681805 456.41876191 C-0.81319991 450.94138506 -0.80580798 445.46401445 -0.79939139 439.98662508 C-0.79140355 434.08681974 -0.77770024 428.18702743 -0.76467896 422.28723145 C-0.74147216 411.39219432 -0.72269296 400.497155 -0.70600913 389.60210608 C-0.69055402 379.54000685 -0.67284619 369.47791439 -0.65294075 359.41582298 C-0.65162314 358.7491964 -0.65030554 358.08256982 -0.648948 357.39574243 C-0.6422461 354.01040764 -0.63550749 350.62507293 -0.62875474 347.23973825 C-0.5809669 323.2492689 -0.537789 299.25879325 -0.49731445 275.26831055 C-0.45797869 251.95906109 -0.41655959 228.64981685 -0.37231445 205.34057617 C-0.37095192 204.62232986 -0.36958939 203.90408354 -0.36818558 203.16407219 C-0.35450043 195.95127561 -0.34077287 188.73847911 -0.32701423 181.52568267 C-0.29898622 166.83183477 -0.27124134 152.13798634 -0.2436676 137.44413757 C-0.2423994 136.76850927 -0.2411312 136.09288097 -0.23982458 135.39677908 C-0.15514082 90.26452787 -0.07707811 45.13226477 0 0 Z " fill="#7836FE" transform="translate(499,10)"/>
<path d="M0 0 C0.99 0.99 0.99 0.99 2 2 C-3.33031907 6.37847638 -8.1739565 6.14594268 -14.88208008 6.13371277 C-15.78922414 6.13597833 -16.6963682 6.13824388 -17.63100147 6.14057809 C-20.67719093 6.14691909 -23.72333591 6.14608867 -26.76953125 6.14526367 C-28.95079608 6.14825505 -31.13206038 6.15165753 -33.31332397 6.15544128 C-39.24292147 6.16428644 -45.17250455 6.16661958 -51.102108 6.16725707 C-56.04773645 6.16820568 -60.99336153 6.17188332 -65.93898869 6.17542917 C-78.2701604 6.18404129 -90.60132384 6.18594195 -102.9324981 6.18517885 C-112.9781241 6.18479748 -123.02371906 6.19260061 -133.06933594 6.20581055 C-144.73323186 6.22109602 -156.39710483 6.22956982 -168.06101131 6.22884732 C-174.23597218 6.22859191 -180.41089328 6.23146699 -186.58584595 6.24202538 C-192.39046318 6.2516795 -198.19500242 6.25180404 -203.99962234 6.24450874 C-206.1329726 6.24345963 -208.26632764 6.24584501 -210.39966965 6.2518692 C-213.30584589 6.25954591 -216.21174986 6.2549731 -219.11791992 6.24723816 C-220.39203594 6.2549535 -220.39203594 6.2549535 -221.69189167 6.26282471 C-228.7402774 6.22120476 -228.7402774 6.22120476 -232 4 C-230.2520676 3.99641747 -230.2520676 3.99641747 -228.46882343 3.99276257 C-200.81247711 3.93541319 -173.15620604 3.86269012 -145.49995129 3.77101372 C-142.0965662 3.75974544 -138.6931807 3.74860701 -135.28979492 3.73754883 C-134.61223692 3.73534514 -133.93467892 3.73314146 -133.23658886 3.730871 C-122.26304997 3.69549047 -111.28951116 3.67063061 -100.31593636 3.64965298 C-89.0575544 3.62789693 -77.79924637 3.59462549 -66.5409233 3.55129844 C-60.21664457 3.52732566 -53.89244793 3.50862345 -47.56812477 3.50238609 C-41.61820926 3.49635362 -35.66850391 3.47642026 -29.71866608 3.44572449 C-27.53254084 3.43691476 -25.34638817 3.43322772 -23.1602459 3.43499184 C-20.17960937 3.43663797 -17.19961858 3.42000144 -14.21907043 3.39872742 C-13.35038938 3.40357499 -12.48170832 3.40842257 -11.5867036 3.41341704 C-6.87721561 3.35779541 -3.88037675 2.97527822 0 0 Z " fill="#852FFE" transform="translate(871,370)"/>
<path d="M0 0 C0.91007813 0.00902344 1.82015625 0.01804688 2.7578125 0.02734375 C3.45648438 0.03894531 4.15515625 0.05054688 4.875 0.0625 C4.875 0.3925 4.875 0.7225 4.875 1.0625 C4.28332031 1.13726562 3.69164062 1.21203125 3.08203125 1.2890625 C-1.03833496 1.97466993 -4.24806628 2.56755119 -7.125 5.75 C-9.28885247 9.33388066 -9.87608737 11.91395625 -10.125 16.0625 C-10.455 16.0625 -10.785 16.0625 -11.125 16.0625 C-11.75239631 7.0872473 -11.75239631 7.0872473 -9.25 3 C-6.02586705 0.06034937 -4.27022746 -0.05474651 0 0 Z " fill="#873FFF" transform="translate(11.125,-0.0625)"/>
<path d="M0 0 C0.33 0 0.66 0 1 0 C1.04898438 1.16917969 1.09796875 2.33835937 1.1484375 3.54296875 C1.22350171 5.09116804 1.29904795 6.63934401 1.375 8.1875 C1.4059375 8.95642578 1.436875 9.72535156 1.46875 10.51757812 C1.75148944 16.00743564 2.27408981 20.12180362 6.125 24.3125 C6.74375 24.869375 7.3625 25.42625 8 26 C6.35 25.67 4.7 25.34 3 25 C2.67 24.01 2.34 23.02 2 22 C1.34 22 0.68 22 0 22 C0 14.74 0 7.48 0 0 Z " fill="#833CFE" transform="translate(0,473)"/>
<path d="M0 0 C2.93865433 0.31769236 4.55099234 0.54252049 6.65625 2.6875 C8.33598196 5.57820151 8.30600072 7.43197973 8.1875 10.75 C8.16042969 11.73484375 8.13335938 12.7196875 8.10546875 13.734375 C8.07066406 14.48203125 8.03585937 15.2296875 8 16 C7.67 16 7.34 16 7 16 C6.91363281 15.34773437 6.82726562 14.69546875 6.73828125 14.0234375 C5.74641149 7.85382562 4.42933725 4.42933725 0 0 Z " fill="#7D39FE" transform="translate(992,501)"/>
<path d="M0 0 C2 1 2 1 3.1875 3.375 C5.66733496 6.96648512 7.93862255 7.5440345 12 9 C12 9.33 12 9.66 12 10 C7.96115115 10.46963359 6.45878506 10.35683282 3.1875 7.8125 C1.0117623 5.01512296 0.29802105 3.47691229 0 0 Z " fill="#7C38FE" transform="translate(500,990)"/>
<path d="M0 0 C0.8125 1.6875 0.8125 1.6875 1 4 C-1.62685275 7.22727623 -3.74780225 9.52753358 -8 10 C-8 9.34 -8 8.68 -8 8 C-7.05125 7.38125 -6.1025 6.7625 -5.125 6.125 C-2.17758128 4.12075527 -1.16146167 3.25209269 0 0 Z " fill="#7942FE" transform="translate(499,490)"/>
<path d="M0 0 C3.07531556 0.33246655 4.61832506 0.63104756 6.875 2.8125 C8 5 8 5 7.6875 7.25 C7.460625 7.8275 7.23375 8.405 7 9 C6.401875 8.071875 5.80375 7.14375 5.1875 6.1875 C3.54727155 3.79745282 2.1281083 1.91529747 0 0 Z " fill="#8438FF" transform="translate(492,1)"/>
<path d="" fill="#AA55FF" transform="translate(0,0)"/>
<path d="" fill="#FF00FF" transform="translate(0,0)"/>
<path d="" fill="#FF00FF" transform="translate(0,0)"/>
<path d="" fill="#AA55FF" transform="translate(0,0)"/>
</svg>
